<svg width="64" height="64" version="1.1" viewBox="0 0 16.9 16.9" xmlns="http://www.w3.org/2000/svg">
 <rect width="16.9" height="16.9" ry="3.17" fill="#5fc6f0"/>
 <g transform="rotate(-4.19 -47.3 13.6)" fill="#fff">
  <path d="m9.78 12.3c-.337.71-.591 1.5-.482 2.3.14.478.612.765 1.06.917.345.114.737.0194.989-.244.5-.444 1.04-1.66 1.04-1.66z"/>
  <path d="m13.2 5.75c-.811-.161-1.73.175-2.15.906-.315.438-.6.924-.641 1.47-.106.614-.134 1.24-.12 1.86-.0334.532-.125 1.06-.222 1.58.867.399 1.73.799 2.6 1.2.697-1.2 1.36-2.44 1.78-3.77.167-.589.288-1.21.188-1.83-.0887-.494-.493-.836-.853-1.15-.171-.132-.367-.238-.581-.278z"/>
 </g>
 <g transform="translate(-.433 -.178)" fill="#fff">
  <path d="m8.14 12.8c.337.71.591 1.5.482 2.3-.14.478-.612.765-1.06.917-.345.114-.737.0194-.989-.244-.5-.444-1.04-1.66-1.04-1.66z"/>
  <path d="m4.71 6.25c.811-.161 1.73.175 2.15.906.315.438.6.924.641 1.47.106.614.134 1.24.12 1.86.0334.532.125 1.06.222 1.58-.867.399-1.73.799-2.6 1.2-.697-1.2-1.36-2.44-1.78-3.77-.167-.589-.288-1.21-.188-1.83.0887-.494.493-.836.853-1.15.171-.132.367-.238.581-.278z"/>
 </g>
</svg>
